<svg width="309" height="85" viewBox="0 0 309 85" fill="none" xmlns="http://www.w3.org/2000/svg">
<path d="M51.4788 21.7735C44.7514 15.1265 32.5126 14.3767 24.6642 20.9541C10.8001 32.5731 -9.2058 78.8081 12.4545 79.592C20.5261 79.8841 19.6959 63.385 29.2881 58.2727C34.6626 55.4082 41.0247 55.8558 46.3181 53.2608" stroke="#D12929" stroke-width="4" stroke-linecap="round" stroke-linejoin="round"/>
<path d="M70.2174 34.404V30.686H62.9634V26.24L58.4914 27.514V30.686H54.4614V34.404H58.4914V41.398C58.4914 44.778 61.0394 46.26 64.9914 46.26C67.0454 46.26 68.7354 46.13 70.2174 45.87V42.282C68.4234 42.542 67.6434 42.542 66.2394 42.542C63.5354 42.542 62.9634 41.788 62.9634 38.824V34.404H70.2174Z" fill="black"/>
<path d="M84.1278 30.426C80.8258 30.426 78.1478 31.336 76.4838 33.078V25.2H72.0378V46H76.4838V43.608C78.1478 45.35 80.8258 46.26 84.1278 46.26C89.0418 46.26 93.2538 44.206 93.2538 38.356C93.2538 32.506 89.0418 30.426 84.1278 30.426ZM82.6458 42.542C78.6678 42.542 76.4838 41.372 76.4838 38.356C76.4838 35.314 78.6678 34.144 82.6458 34.144C86.6238 34.144 88.7818 35.314 88.7818 38.356C88.7818 41.372 86.6238 42.542 82.6458 42.542Z" fill="black"/>
<path d="M94.9402 25.2V29.074H99.3862V25.2H94.9402ZM94.9402 30.686V46H99.3862V30.686H94.9402Z" fill="black"/>
<path d="M117.573 30.686L111.593 42.854L105.587 30.686H100.647L108.395 46H114.739L122.513 30.686H117.573Z" fill="black"/>
<path d="M136.996 30.426C133.278 30.426 130.262 31.648 128.078 33.364V30.686H123.632V46H128.078V37.42C129.456 35.808 132.68 34.274 135.67 34.274C139.336 34.274 140.428 35.964 140.428 39.214V46H144.9L144.952 37.524C144.9 31.882 141.078 30.426 136.996 30.426Z" fill="black"/>
<path d="M157.11 46.26C163.428 46.26 167.718 43.972 167.718 38.356C167.718 32.714 163.428 30.426 157.11 30.426C150.766 30.426 146.502 32.714 146.502 38.356C146.502 43.972 150.766 46.26 157.11 46.26ZM157.11 42.542C152.976 42.542 150.948 41.528 150.948 38.356C150.948 35.158 152.976 34.144 157.11 34.144C161.218 34.144 163.246 35.158 163.246 38.356C163.246 41.528 161.218 42.542 157.11 42.542Z" fill="black"/>
<path d="M179.347 42.646C176.383 42.646 174.043 41.84 173.549 39.396H190.085C190.085 32.428 185.431 30.426 179.607 30.426C173.393 30.426 168.999 32.714 168.999 38.356C168.999 43.972 173.523 46.26 179.347 46.26C185.015 46.26 188.811 44.414 189.825 40.514H185.405C184.287 42.074 182.415 42.646 179.347 42.646ZM179.581 33.806C182.389 33.806 184.573 34.404 185.327 36.562H173.705C174.407 34.404 176.539 33.806 179.581 33.806Z" fill="black"/>
<path d="M197.653 27.28H193.207L192.167 35.6H195.989L197.653 27.28Z" fill="black"/>
<path d="M198.706 40.618C198.706 45.506 204.166 46.26 210.068 46.26C215.97 46.26 219.87 45.506 219.87 41.19C219.87 37.108 215.788 36.952 209.808 36.51C204.53 36.12 203.724 35.964 203.724 35.002C203.724 34.118 204.92 33.806 209.132 33.806C213.266 33.806 214.878 34.118 214.878 35.392H219.35C219.35 31.18 215.164 30.426 209.392 30.426C203.932 30.426 199.252 31.18 199.252 35.184C199.252 38.876 202.554 39.396 209.288 39.786C214.67 40.124 215.398 40.202 215.398 41.372C215.398 42.568 214.618 42.88 209.808 42.88C204.842 42.88 203.152 42.256 203.152 40.618H198.706Z" fill="black"/>
<path d="M41.2979 46.26C49.2799 46.26 52.7379 42.906 52.7379 36.874C52.7379 30.868 49.2799 27.54 41.2979 27.54C33.2899 27.54 29.8579 30.842 29.8579 36.874C29.8579 42.932 33.2899 46.26 41.2979 46.26ZM41.2979 42.334C36.4359 42.334 34.5379 40.618 34.5379 36.874C34.5379 33.156 36.4099 31.466 41.2979 31.466C46.1859 31.466 48.0579 33.182 48.0579 36.874C48.0579 40.592 46.1599 42.334 41.2979 42.334Z" fill="#D12929"/>
<path d="M247.208 30.426C243.906 30.426 241.228 31.336 239.564 33.078V25.2H235.118V46H239.564V43.608C241.228 45.35 243.906 46.26 247.208 46.26C252.122 46.26 256.334 44.206 256.334 38.356C256.334 32.506 252.122 30.426 247.208 30.426ZM245.726 42.542C241.748 42.542 239.564 41.372 239.564 38.356C239.564 35.314 241.748 34.144 245.726 34.144C249.704 34.144 251.862 35.314 251.862 38.356C251.862 41.372 249.704 42.542 245.726 42.542Z" fill="black"/>
<path d="M258.021 25.2V46H262.467V25.2H258.021Z" fill="black"/>
<path d="M274.767 46.26C281.085 46.26 285.375 43.972 285.375 38.356C285.375 32.714 281.085 30.426 274.767 30.426C268.423 30.426 264.159 32.714 264.159 38.356C264.159 43.972 268.423 46.26 274.767 46.26ZM274.767 42.542C270.633 42.542 268.605 41.528 268.605 38.356C268.605 35.158 270.633 34.144 274.767 34.144C278.875 34.144 280.903 35.158 280.903 38.356C280.903 41.528 278.875 42.542 274.767 42.542Z" fill="black"/>
<path d="M303.551 30.686V33.156C302.017 31.44 299.443 30.426 295.803 30.426C290.551 30.426 286.807 32.714 286.807 38.122C286.807 43.53 290.551 45.818 295.803 45.818C299.417 45.818 301.991 44.804 303.551 43.088C303.369 47.014 301.653 48.782 297.051 48.782C293.671 48.782 290.239 48.028 288.445 47.69V51.278C289.927 51.668 293.593 52.5 298.039 52.5C303.837 52.5 308.023 49.796 308.023 43.556V30.686H303.551ZM297.415 42.1C293.229 42.1 291.253 40.93 291.253 38.122C291.253 35.314 293.229 34.144 297.415 34.144C301.601 34.144 303.551 35.314 303.551 38.122C303.551 40.93 301.601 42.1 297.415 42.1Z" fill="black"/>
</svg>
